<?xml version="1.0" encoding="utf-8"?>
<!-- Generator: Junge Liberale e.V.  -->
<svg version="1.1" id="julis" xmlns="http://www.w3.org/2000/svg" xmlns:xlink="http://www.w3.org/1999/xlink" x="0px" y="0px"
	 viewBox="0 0 194.3 75.3" style="enable-background:new 0 0 194.3 75.3; background-color:#FFFFFF;" xml:space="preserve">
<style type="text/css">
	@font-face {
		font-family: 'Montserrat';
		font-type: 'Regular';
		src: local('Montserrat-Regular');
		src: url('https://logogenerator.julis.de/fonts/Montserrat-Regular.otf');
	}
	.st0{fill:#E5007D;}
	.st1{fill:#FFED00;}
	.st2{font-family:'Montserrat'; font-type: 'Regular';}
	.st3{font-size:9.9889px;}
</style>
<g id="XMLID_1_">
	<path id="XMLID_7_" class="st0" d="M58,41.8c0,2.2-1.6,3.4-3.6,3.4c-0.9,0-1.8-0.2-2.5-0.6l0.8-2.2c0.4,0.2,0.8,0.4,1.1,0.4
		c0.6,0,1-0.3,1-1.1v-10H58V41.8z M58.2,28.7c0,1-0.7,1.7-1.8,1.7c-1.1,0-1.8-0.7-1.8-1.7c0-1,0.8-1.7,1.8-1.7
		C57.5,27,58.2,27.7,58.2,28.7z"/>
	<path id="XMLID_10_" class="st0" d="M70.3,41.5h-3.2v-1.6c-0.7,1.2-1.8,1.8-3.2,1.8c-2.2,0-3.6-1.5-3.6-3.8v-6.3h3.2v5.4
		c0,1.2,0.6,1.9,1.7,1.9c1.2,0,1.9-1,1.9-2.4v-4.9h3.2V41.5z"/>
	<path id="XMLID_12_" class="st0" d="M83,35.2v6.3h-3.2v-5.4c0-1.2-0.7-1.9-1.8-1.9c-1.2,0-1.9,0.8-2,2v5.3h-3.2v-9.9h3.2v1.6
		c0.7-1.2,1.8-1.8,3.3-1.8C81.6,31.4,83,32.9,83,35.2z"/>
	<path id="XMLID_14_" class="st0" d="M94.8,40.6c0,2.8-2.2,4.6-5.4,4.6c-1.7,0-3.3-0.6-4.4-1.3l1.1-2.2c0.9,0.6,2,1,3.1,1
		c1.5,0,2.5-0.8,2.5-2v-1.1c-0.6,0.8-1.6,1.3-2.9,1.3c-2.5,0-4.3-1.9-4.3-4.8c0-2.8,1.7-4.7,4.2-4.7c1.3,0,2.3,0.5,2.9,1.3v-1.2h3.2
		V40.6z M91.6,36.2c0-1.5-0.8-2.4-2.1-2.4c-1.3,0-2.1,1-2.1,2.4c0,1.4,0.8,2.4,2.1,2.4C90.8,38.6,91.6,37.6,91.6,36.2z"/>
	<path id="XMLID_17_" class="st0" d="M106.6,37.4h-7c0.3,1.2,1.2,1.8,2.3,1.8c0.9,0,1.7-0.4,2.4-1l1.7,1.6c-1,1.1-2.5,1.8-4.3,1.8
		c-3.2,0-5.3-2-5.3-5.1c0-3.1,2.1-5.1,5.2-5.1C105.1,31.4,106.8,33.7,106.6,37.4z M103.5,35.6c0-1.2-0.8-2-1.9-2
		c-1.1,0-1.9,0.8-2.1,2H103.5z"/>
	<path id="XMLID_20_" class="st0" d="M112.7,41.5V27.8h3.2v13.7H112.7z"/>
	<path id="XMLID_22_" class="st0" d="M121.8,28.7c0,1-0.7,1.7-1.7,1.7c-1,0-1.7-0.7-1.7-1.7c0-1,0.7-1.7,1.7-1.7
		C121.1,27,121.8,27.7,121.8,28.7z M118.5,41.5v-9.9h3.2v9.9H118.5z"/>
	<path id="XMLID_25_" class="st0" d="M135.2,36.5c0,3-1.8,5-4.6,5c-1.3,0-2.3-0.5-3-1.4v1.3h-3.2V27.8h3.2v5.1
		c0.7-0.9,1.7-1.4,3-1.4C133.3,31.4,135.2,33.5,135.2,36.5z M132,36.5c0-1.5-0.9-2.6-2.2-2.6c-1.3,0-2.2,1.1-2.2,2.6
		c0,1.5,0.9,2.6,2.2,2.6C131.1,39.1,132,38,132,36.5z"/>
	<path id="XMLID_28_" class="st0" d="M146.3,37.4h-7c0.3,1.2,1.2,1.8,2.3,1.8c0.9,0,1.7-0.4,2.4-1l1.7,1.6c-1,1.1-2.5,1.8-4.3,1.8
		c-3.2,0-5.3-2-5.3-5.1c0-3.1,2.1-5.1,5.2-5.1C144.7,31.4,146.5,33.7,146.3,37.4z M143.2,35.6c0-1.2-0.8-2-1.9-2
		c-1.1,0-1.9,0.8-2.1,2H143.2z"/>
	<path id="XMLID_31_" class="st0" d="M151.2,33.2c0.7-1.2,1.8-1.8,3.2-1.8v2.9c-1.8-0.2-3.1,0.7-3.2,2.1v5.1H148v-9.9h3.2V33.2z"/>
	<path id="XMLID_33_" class="st0" d="M164.4,35v6.5h-3.1v-1.1c-0.6,0.8-1.7,1.3-3,1.3c-2.1,0-3.4-1.3-3.4-3.1c0-1.9,1.3-3,3.8-3h2.6
		v-0.1c0-1-0.6-1.6-1.9-1.6c-0.8,0-1.9,0.3-3,0.8l-0.9-2.1c1.5-0.7,3-1.1,4.6-1.1C162.8,31.4,164.4,32.7,164.4,35z M161.2,38.1v-0.9
		h-2c-1,0-1.4,0.3-1.4,1.1c0,0.7,0.5,1.2,1.4,1.2C160.2,39.5,161,38.9,161.2,38.1z"/>
	<path id="XMLID_36_" class="st0" d="M166.7,41.5V27.8h3.2v13.7H166.7z"/>
	<path id="XMLID_38_" class="st0" d="M181.9,37.4h-7c0.3,1.2,1.2,1.8,2.3,1.8c0.9,0,1.7-0.4,2.4-1l1.7,1.6c-1,1.1-2.5,1.8-4.3,1.8
		c-3.2,0-5.3-2-5.3-5.1c0-3.1,2.1-5.1,5.2-5.1C180.4,31.4,182.2,33.7,181.9,37.4z M178.9,35.6c0-1.2-0.8-2-1.9-2
		c-1.1,0-1.9,0.8-2.1,2H178.9z"/>
</g>
<g id="XMLID_2_">
	<polygon id="XMLID_4_" class="st1" points="22.2,56.9 30.1,27.7 16.2,27.7 12.3,42.3 	"/>
	<polygon id="XMLID_3_" class="st1" points="28.8,41.5 42.6,41.5 50.4,12.3 36.6,12.3 	"/>
</g>
<text id="XMLID_6_" transform="matrix(1 0 0 1 53.9101 56.8854)">
	<tspan x="0" y="0" class="st0 st2 st3">Nordwürttemberg</tspan>
</text>
</svg>
